<svg width="23" height="23" viewBox="0 0 23 23" fill="none" xmlns="http://www.w3.org/2000/svg">
<g clip-path="url(#clip0_20_123)">
<path fill-rule="evenodd" clip-rule="evenodd" d="M11.1396 0.00012207C5.075 0.00012207 0.172363 5.27095 0.172363 11.7917C0.172363 17.0041 3.31365 21.4162 7.67144 22.9778C8.21628 23.0952 8.41585 22.7241 8.41585 22.4119C8.41585 22.1386 8.39789 21.2016 8.39789 20.2253C5.34708 20.9282 4.71177 18.8196 4.71177 18.8196C4.22149 17.453 3.49504 17.1018 3.49504 17.1018C2.49651 16.3795 3.56777 16.3795 3.56777 16.3795C4.6754 16.4576 5.25661 17.5898 5.25661 17.5898C6.23696 19.3858 7.81669 18.8783 8.45222 18.5659C8.54291 17.8045 8.83363 17.2774 9.1423 16.9847C6.70906 16.7113 4.14898 15.6962 4.14898 11.1669C4.14898 9.87838 4.58449 8.82421 5.27457 8.00436C5.16569 7.71159 4.78428 6.50098 5.38367 4.88067C5.38367 4.88067 6.30969 4.56826 8.39767 6.09105C9.29161 5.83294 10.2135 5.70163 11.1396 5.70053C12.0656 5.70053 13.0096 5.83733 13.8813 6.09105C15.9695 4.56826 16.8955 4.88067 16.8955 4.88067C17.4949 6.50098 17.1133 7.71159 17.0044 8.00436C17.7126 8.82421 18.1302 9.87838 18.1302 11.1669C18.1302 15.6962 15.5701 16.6917 13.1187 16.9847C13.5183 17.3555 13.8631 18.0582 13.8631 19.1711C13.8631 20.7523 13.8451 22.0214 13.8451 22.4117C13.8451 22.7241 14.0449 23.0952 14.5895 22.9781C18.9473 21.416 22.0886 17.0041 22.0886 11.7917C22.1066 5.27095 17.186 0.00012207 11.1396 0.00012207Z" fill="white"/>
</g>
<defs>
<clipPath id="clip0_20_123">
<rect width="22" height="23" fill="white" transform="translate(0.172363 0.00012207)"/>
</clipPath>
</defs>
</svg>
